<svg id="visual" viewBox="0 0 540 960" width="540" height="960" xmlns="http://www.w3.org/2000/svg" xmlns:xlink="http://www.w3.org/1999/xlink" version="1.1"><rect x="0" y="0" width="540" height="960" fill="#5c2b08"></rect><defs><linearGradient id="grad1_0" x1="0%" y1="0%" x2="100%" y2="100%"><stop offset="30%" stop-color="#fbae3c" stop-opacity="1"></stop><stop offset="70%" stop-color="#fbae3c" stop-opacity="1"></stop></linearGradient></defs><defs><linearGradient id="grad1_1" x1="0%" y1="0%" x2="100%" y2="100%"><stop offset="30%" stop-color="#fbae3c" stop-opacity="1"></stop><stop offset="70%" stop-color="#db9132" stop-opacity="1"></stop></linearGradient></defs><defs><linearGradient id="grad1_2" x1="0%" y1="0%" x2="100%" y2="100%"><stop offset="30%" stop-color="#bb7527" stop-opacity="1"></stop><stop offset="70%" stop-color="#db9132" stop-opacity="1"></stop></linearGradient></defs><defs><linearGradient id="grad1_3" x1="0%" y1="0%" x2="100%" y2="100%"><stop offset="30%" stop-color="#bb7527" stop-opacity="1"></stop><stop offset="70%" stop-color="#9b5b1d" stop-opacity="1"></stop></linearGradient></defs><defs><linearGradient id="grad1_4" x1="0%" y1="0%" x2="100%" y2="100%"><stop offset="30%" stop-color="#7b4213" stop-opacity="1"></stop><stop offset="70%" stop-color="#9b5b1d" stop-opacity="1"></stop></linearGradient></defs><defs><linearGradient id="grad1_5" x1="0%" y1="0%" x2="100%" y2="100%"><stop offset="30%" stop-color="#7b4213" stop-opacity="1"></stop><stop offset="70%" stop-color="#5c2b08" stop-opacity="1"></stop></linearGradient></defs><defs><linearGradient id="grad2_0" x1="0%" y1="0%" x2="100%" y2="100%"><stop offset="30%" stop-color="#fbae3c" stop-opacity="1"></stop><stop offset="70%" stop-color="#fbae3c" stop-opacity="1"></stop></linearGradient></defs><defs><linearGradient id="grad2_1" x1="0%" y1="0%" x2="100%" y2="100%"><stop offset="30%" stop-color="#db9132" stop-opacity="1"></stop><stop offset="70%" stop-color="#fbae3c" stop-opacity="1"></stop></linearGradient></defs><defs><linearGradient id="grad2_2" x1="0%" y1="0%" x2="100%" y2="100%"><stop offset="30%" stop-color="#db9132" stop-opacity="1"></stop><stop offset="70%" stop-color="#bb7527" stop-opacity="1"></stop></linearGradient></defs><defs><linearGradient id="grad2_3" x1="0%" y1="0%" x2="100%" y2="100%"><stop offset="30%" stop-color="#9b5b1d" stop-opacity="1"></stop><stop offset="70%" stop-color="#bb7527" stop-opacity="1"></stop></linearGradient></defs><defs><linearGradient id="grad2_4" x1="0%" y1="0%" x2="100%" y2="100%"><stop offset="30%" stop-color="#9b5b1d" stop-opacity="1"></stop><stop offset="70%" stop-color="#7b4213" stop-opacity="1"></stop></linearGradient></defs><defs><linearGradient id="grad2_5" x1="0%" y1="0%" x2="100%" y2="100%"><stop offset="30%" stop-color="#5c2b08" stop-opacity="1"></stop><stop offset="70%" stop-color="#7b4213" stop-opacity="1"></stop></linearGradient></defs><g transform="translate(540, 0)"><path d="M0 405C-34.6 371.6 -69.2 338.2 -104.4 321.5C-139.7 304.7 -175.8 304.6 -214 294.5C-252.2 284.3 -292.5 264.2 -322.8 234.5C-353.1 204.9 -373.2 165.8 -385.2 125.2C-397.2 84.5 -401.1 42.2 -405 0L0 0Z" fill="#6c360e"></path><path d="M0 337.5C-28.8 309.7 -57.6 281.8 -87 267.9C-116.5 253.9 -146.5 253.9 -178.3 245.4C-210.1 237 -243.8 220.1 -269 195.4C-294.2 170.7 -311 138.2 -321 104.3C-331 70.4 -334.2 35.2 -337.5 0L0 0Z" fill="#8b4e18"></path><path d="M0 270C-23.1 247.7 -46.1 225.5 -69.6 214.3C-93.2 203.1 -117.2 203.1 -142.6 196.3C-168.1 189.6 -195 176.1 -215.2 156.4C-235.4 136.6 -248.8 110.5 -256.8 83.4C-264.8 56.3 -267.4 28.2 -270 0L0 0Z" fill="#ab6722"></path><path d="M0 202.5C-17.3 185.8 -34.6 169.1 -52.2 160.7C-69.9 152.4 -87.9 152.3 -107 147.2C-126.1 142.2 -146.3 132.1 -161.4 117.3C-176.5 102.4 -186.6 82.9 -192.6 62.6C-198.6 42.2 -200.5 21.1 -202.5 0L0 0Z" fill="#cb832d"></path><path d="M0 135C-11.5 123.9 -23.1 112.7 -34.8 107.2C-46.6 101.6 -58.6 101.5 -71.3 98.2C-84.1 94.8 -97.5 88.1 -107.6 78.2C-117.7 68.3 -124.4 55.3 -128.4 41.7C-132.4 28.2 -133.7 14.1 -135 0L0 0Z" fill="#eb9f37"></path><path d="M0 67.5C-5.8 61.9 -11.5 56.4 -17.4 53.6C-23.3 50.8 -29.3 50.8 -35.7 49.1C-42 47.4 -48.8 44 -53.8 39.1C-58.8 34.1 -62.2 27.6 -64.2 20.9C-66.2 14.1 -66.8 7 -67.5 0L0 0Z" fill="#fbae3c"></path></g><g transform="translate(0, 960)"><path d="M0 -405C47.2 -408.7 94.4 -412.5 125.2 -385.2C155.9 -357.9 170.1 -299.5 192.2 -264.5C214.4 -229.6 244.4 -217.9 271 -196.9C297.6 -175.9 320.6 -145.6 342.4 -111.2C364.1 -76.9 384.6 -38.4 405 0L0 0Z" fill="#6c360e"></path><path d="M0 -337.5C39.4 -340.6 78.7 -343.7 104.3 -321C129.9 -298.2 141.7 -249.6 160.2 -220.5C178.6 -191.3 203.7 -181.6 225.9 -164.1C248 -146.6 267.2 -121.3 285.3 -92.7C303.4 -64.1 320.5 -32 337.5 0L0 0Z" fill="#8b4e18"></path><path d="M0 -270C31.5 -272.5 63 -275 83.4 -256.8C103.9 -238.6 113.4 -199.7 128.1 -176.4C142.9 -153 163 -145.3 180.7 -131.3C198.4 -117.3 213.8 -97.1 228.3 -74.2C242.7 -51.2 256.4 -25.6 270 0L0 0Z" fill="#ab6722"></path><path d="M0 -202.5C23.6 -204.4 47.2 -206.2 62.6 -192.6C77.9 -178.9 85 -149.8 96.1 -132.3C107.2 -114.8 122.2 -108.9 135.5 -98.5C148.8 -88 160.3 -72.8 171.2 -55.6C182.1 -38.4 192.3 -19.2 202.5 0L0 0Z" fill="#cb832d"></path><path d="M0 -135C15.7 -136.2 31.5 -137.5 41.7 -128.4C52 -119.3 56.7 -99.8 64.1 -88.2C71.5 -76.5 81.5 -72.6 90.3 -65.6C99.2 -58.6 106.9 -48.5 114.1 -37.1C121.4 -25.6 128.2 -12.8 135 0L0 0Z" fill="#eb9f37"></path><path d="M0 -67.5C7.9 -68.1 15.7 -68.7 20.9 -64.2C26 -59.6 28.3 -49.9 32 -44.1C35.7 -38.3 40.7 -36.3 45.2 -32.8C49.6 -29.3 53.4 -24.3 57.1 -18.5C60.7 -12.8 64.1 -6.4 67.5 0L0 0Z" fill="#fbae3c"></path></g></svg>