<svg id="visual" viewBox="0 0 960 540" width="960" height="540" xmlns="http://www.w3.org/2000/svg" xmlns:xlink="http://www.w3.org/1999/xlink" version="1.1"><rect x="0" y="0" width="960" height="540" fill="#012100"></rect><defs><linearGradient id="grad1_0" x1="43.8%" y1="0%" x2="100%" y2="100%"><stop offset="14.444444444444446%" stop-color="#009473" stop-opacity="1"></stop><stop offset="85.55555555555554%" stop-color="#009473" stop-opacity="1"></stop></linearGradient></defs><defs><linearGradient id="grad1_1" x1="43.8%" y1="0%" x2="100%" y2="100%"><stop offset="14.444444444444446%" stop-color="#009473" stop-opacity="1"></stop><stop offset="85.55555555555554%" stop-color="#0c7b59" stop-opacity="1"></stop></linearGradient></defs><defs><linearGradient id="grad1_2" x1="43.8%" y1="0%" x2="100%" y2="100%"><stop offset="14.444444444444446%" stop-color="#0e6341" stop-opacity="1"></stop><stop offset="85.55555555555554%" stop-color="#0c7b59" stop-opacity="1"></stop></linearGradient></defs><defs><linearGradient id="grad1_3" x1="43.8%" y1="0%" x2="100%" y2="100%"><stop offset="14.444444444444446%" stop-color="#0e6341" stop-opacity="1"></stop><stop offset="85.55555555555554%" stop-color="#0b4b2b" stop-opacity="1"></stop></linearGradient></defs><defs><linearGradient id="grad1_4" x1="43.8%" y1="0%" x2="100%" y2="100%"><stop offset="14.444444444444446%" stop-color="#063518" stop-opacity="1"></stop><stop offset="85.55555555555554%" stop-color="#0b4b2b" stop-opacity="1"></stop></linearGradient></defs><defs><linearGradient id="grad1_5" x1="43.8%" y1="0%" x2="100%" y2="100%"><stop offset="14.444444444444446%" stop-color="#063518" stop-opacity="1"></stop><stop offset="85.55555555555554%" stop-color="#012100" stop-opacity="1"></stop></linearGradient></defs><defs><linearGradient id="grad2_0" x1="0%" y1="0%" x2="56.3%" y2="100%"><stop offset="14.444444444444446%" stop-color="#009473" stop-opacity="1"></stop><stop offset="85.55555555555554%" stop-color="#009473" stop-opacity="1"></stop></linearGradient></defs><defs><linearGradient id="grad2_1" x1="0%" y1="0%" x2="56.3%" y2="100%"><stop offset="14.444444444444446%" stop-color="#0c7b59" stop-opacity="1"></stop><stop offset="85.55555555555554%" stop-color="#009473" stop-opacity="1"></stop></linearGradient></defs><defs><linearGradient id="grad2_2" x1="0%" y1="0%" x2="56.3%" y2="100%"><stop offset="14.444444444444446%" stop-color="#0c7b59" stop-opacity="1"></stop><stop offset="85.55555555555554%" stop-color="#0e6341" stop-opacity="1"></stop></linearGradient></defs><defs><linearGradient id="grad2_3" x1="0%" y1="0%" x2="56.3%" y2="100%"><stop offset="14.444444444444446%" stop-color="#0b4b2b" stop-opacity="1"></stop><stop offset="85.55555555555554%" stop-color="#0e6341" stop-opacity="1"></stop></linearGradient></defs><defs><linearGradient id="grad2_4" x1="0%" y1="0%" x2="56.3%" y2="100%"><stop offset="14.444444444444446%" stop-color="#0b4b2b" stop-opacity="1"></stop><stop offset="85.55555555555554%" stop-color="#063518" stop-opacity="1"></stop></linearGradient></defs><defs><linearGradient id="grad2_5" x1="0%" y1="0%" x2="56.3%" y2="100%"><stop offset="14.444444444444446%" stop-color="#012100" stop-opacity="1"></stop><stop offset="85.55555555555554%" stop-color="#063518" stop-opacity="1"></stop></linearGradient></defs><g transform="translate(960, 0)"><path d="M0 324C-40.4 316.6 -80.8 309.3 -122.5 295.6C-164.1 282 -206.9 262.1 -229.1 229.1C-251.3 196.1 -252.8 150.2 -265.2 109.8C-277.5 69.5 -300.8 34.7 -324 0L0 0Z" fill="#042b0e"></path><path d="M0 270C-33.7 263.9 -67.4 257.7 -102 246.4C-136.7 235 -172.4 218.4 -190.9 190.9C-209.4 163.5 -210.7 125.2 -221 91.5C-231.3 57.9 -250.6 28.9 -270 0L0 0Z" fill="#094021"></path><path d="M0 216C-26.9 211.1 -53.9 206.2 -81.6 197.1C-109.4 188 -138 174.7 -152.7 152.7C-167.5 130.8 -168.5 100.1 -176.8 73.2C-185 46.3 -200.5 23.2 -216 0L0 0Z" fill="#0d5736"></path><path d="M0 162C-20.2 158.3 -40.4 154.6 -61.2 147.8C-82 141 -103.5 131 -114.6 114.6C-125.6 98.1 -126.4 75.1 -132.6 54.9C-138.8 34.7 -150.4 17.4 -162 0L0 0Z" fill="#0e6f4c"></path><path d="M0 108C-13.5 105.5 -26.9 103.1 -40.8 98.5C-54.7 94 -69 87.4 -76.4 76.4C-83.8 65.4 -84.3 50.1 -88.4 36.6C-92.5 23.2 -100.3 11.6 -108 0L0 0Z" fill="#088766"></path><path d="M0 54C-6.7 52.8 -13.5 51.5 -20.4 49.3C-27.3 47 -34.5 43.7 -38.2 38.2C-41.9 32.7 -42.1 25 -44.2 18.3C-46.3 11.6 -50.1 5.8 -54 0L0 0Z" fill="#009473"></path></g><g transform="translate(0, 540)"><path d="M0 -324C46.5 -323.5 93 -323.1 124 -299.3C155 -275.6 170.4 -228.6 196.6 -196.6C222.8 -164.5 259.7 -147.4 282.7 -117.1C305.7 -86.8 314.9 -43.4 324 0L0 0Z" fill="#042b0e"></path><path d="M0 -270C38.8 -269.6 77.5 -269.2 103.3 -249.4C129.1 -229.7 142 -190.5 163.8 -163.8C185.6 -137.1 216.4 -122.8 235.6 -97.6C254.8 -72.4 262.4 -36.2 270 0L0 0Z" fill="#094021"></path><path d="M0 -216C31 -215.7 62 -215.4 82.7 -199.6C103.3 -183.7 113.6 -152.4 131.1 -131.1C148.5 -109.7 173.1 -98.3 188.5 -78.1C203.8 -57.9 209.9 -28.9 216 0L0 0Z" fill="#0d5736"></path><path d="M0 -162C23.3 -161.8 46.5 -161.5 62 -149.7C77.5 -137.8 85.2 -114.3 98.3 -98.3C111.4 -82.3 129.8 -73.7 141.4 -58.6C152.9 -43.4 157.4 -21.7 162 0L0 0Z" fill="#0e6f4c"></path><path d="M0 -108C15.5 -107.8 31 -107.7 41.3 -99.8C51.7 -91.9 56.8 -76.2 65.5 -65.5C74.3 -54.8 86.6 -49.1 94.2 -39C101.9 -28.9 105 -14.5 108 0L0 0Z" fill="#088766"></path><path d="M0 -54C7.8 -53.9 15.5 -53.8 20.7 -49.9C25.8 -45.9 28.4 -38.1 32.8 -32.8C37.1 -27.4 43.3 -24.6 47.1 -19.5C51 -14.5 52.5 -7.2 54 0L0 0Z" fill="#009473"></path></g></svg>