<?xml version="1.0" encoding="UTF-8" standalone="no"?>
<!-- Created with Inkscape (http://www.inkscape.org/) -->

<svg
   width="210mm"
   height="297mm"
   viewBox="0 0 210 297"
   version="1.1"
   id="svg2972"
   inkscape:version="1.2.1 (9c6d41e410, 2022-07-14)"
   sodipodi:docname="ryba.svg"
   xmlns:inkscape="http://www.inkscape.org/namespaces/inkscape"
   xmlns:sodipodi="http://sodipodi.sourceforge.net/DTD/sodipodi-0.dtd"
   xmlns:xlink="http://www.w3.org/1999/xlink"
   xmlns="http://www.w3.org/2000/svg"
   xmlns:svg="http://www.w3.org/2000/svg">
  <sodipodi:namedview
     id="namedview2974"
     pagecolor="#505050"
     bordercolor="#ffffff"
     borderopacity="1"
     inkscape:showpageshadow="0"
     inkscape:pageopacity="0"
     inkscape:pagecheckerboard="1"
     inkscape:deskcolor="#505050"
     inkscape:document-units="mm"
     showgrid="false"
     inkscape:zoom="1.0544998"
     inkscape:cx="355.1447"
     inkscape:cy="466.57194"
     inkscape:window-width="1920"
     inkscape:window-height="1017"
     inkscape:window-x="-8"
     inkscape:window-y="-8"
     inkscape:window-maximized="1"
     inkscape:current-layer="layer1" />
  <defs
     id="defs2969">
    <linearGradient
       inkscape:collect="always"
       id="linearGradient9916">
      <stop
         style="stop-color:#670000;stop-opacity:1;"
         offset="0"
         id="stop9912" />
      <stop
         style="stop-color:#ecf12f;stop-opacity:0.98431373;"
         offset="0.28386179"
         id="stop9926" />
      <stop
         style="stop-color:#0eb20c;stop-opacity:0.97647059;"
         offset="0.46280265"
         id="stop9928" />
      <stop
         style="stop-color:#0eb7d0;stop-opacity:0.97254908;"
         offset="0.60852826"
         id="stop9930" />
      <stop
         style="stop-color:#0f1adf;stop-opacity:0.96862745;"
         offset="0.82795048"
         id="stop9932" />
      <stop
         style="stop-color:#ee11d4;stop-opacity:0.96739125;"
         offset="1"
         id="stop9914" />
    </linearGradient>
    <linearGradient
       inkscape:collect="always"
       xlink:href="#linearGradient9916"
       id="linearGradient9920"
       x1="4.8352432"
       y1="106.62903"
       x2="124.68089"
       y2="106.62903"
       gradientUnits="userSpaceOnUse"
       gradientTransform="matrix(1.348722,0,0,1.3497684,4.7805796,-10.46935)" />
    <linearGradient
       inkscape:collect="always"
       xlink:href="#linearGradient9916"
       id="linearGradient10007"
       gradientUnits="userSpaceOnUse"
       x1="4.8352432"
       y1="106.62903"
       x2="124.68089"
       y2="106.62903"
       gradientTransform="matrix(-0.6878381,-0.07915531,0.23177964,-2.0172284,211.89451,353.04948)" />
  </defs>
  <g
     inkscape:label="Warstwa 1"
     inkscape:groupmode="layer"
     id="layer1">
    <ellipse
       style="fill:url(#linearGradient9920);fill-opacity:1;fill-rule:nonzero;stroke:#000000;stroke-width:0.264999;stroke-dasharray:none;stroke-opacity:1"
       id="path9910"
       cx="92.121216"
       cy="133.45512"
       rx="80.640518"
       ry="27.539627" />
    <path
       id="path9910-5"
       style="fill:url(#linearGradient10007);fill-opacity:1;fill-rule:nonzero;stroke:#000000;stroke-width:0.264999;stroke-dasharray:none;stroke-opacity:1"
       d="m 191.39395,91.452802 a 41.429175,41.397062 89.999453 0 0 -40.45374,36.642668 41.429175,41.397062 89.999453 0 0 36.39652,45.8909 41.429175,41.397062 89.999453 0 0 10.36224,-0.14154 c -0.42782,-0.43143 -0.85361,-0.8649 -1.26812,-1.30933 -0.78441,-0.85093 -1.62343,-1.65066 -2.35695,-2.54889 -0.92913,-1.09691 -1.87114,-2.18393 -2.8136,-3.26982 -0.63743,-0.78114 -1.2365,-1.58776 -1.85698,-2.38181 -0.68876,-0.96642 -1.35759,-1.94717 -2.04792,-2.9121 -0.62583,-1.09469 -1.29515,-2.16383 -1.84692,-3.29972 -0.53374,-1.11261 -1.01,-2.25371 -1.498,-3.38734 -0.4994,-1.16187 -0.97408,-2.33379 -1.50465,-3.48219 -0.58169,-1.2611 -1.10273,-2.54717 -1.60726,-3.84085 -0.43818,-1.12809 -0.8374,-2.26694 -1.24323,-3.40646 -0.53091,-1.34573 -1.04409,-2.69921 -1.47294,-4.08165 -0.43645,-1.38396 -0.83068,-2.79001 -1.00356,-4.23475 -0.11572,-1.24361 -0.20092,-2.50264 -0.1094,-3.74992 0.14139,-1.10288 0.28548,-2.2068 0.46739,-3.30439 0.17723,-1.03571 0.38027,-2.06729 0.65102,-3.08317 0.21497,-0.8679 0.33796,-1.75915 0.58866,-2.61993 0.23057,-0.87356 0.38081,-1.76502 0.63913,-2.63167 0.30215,-0.95505 0.64963,-1.89436 0.94638,-2.85118 0.34754,-0.9634 0.66875,-1.93558 1.01168,-2.90055 0.36208,-0.94331 0.73855,-1.87976 1.14855,-2.80334 0.35983,-0.76985 0.72196,-1.53838 1.06518,-2.31583 0.34859,-0.92344 0.65304,-1.8628 1.03767,-2.77257 0.404,-1.00615 0.87525,-1.98342 1.3514,-2.95695 0.47465,-1.04058 0.98315,-2.06551 1.43829,-3.11472 0.008,-0.27984 0.0152,-0.55988 0.0236,-0.839825 0.0121,-0.401869 0.0243,-1.209941 0.13603,-1.58093 0.10137,-0.336898 0.29121,-0.640427 0.43662,-0.960795 0.21772,-0.199133 0.41909,-0.41771 0.65305,-0.597469 0.0548,-0.0421 0.13218,-0.09004 0.21814,-0.139898 0.21315,-0.621981 0.42697,-1.243779 0.63751,-1.866552 0.33755,-0.981729 0.77286,-1.920466 1.43803,-2.727908 0.14384,-0.151839 0.28914,-0.289718 0.43618,-0.41951 z" />
    <path
       style="fill:#000000;fill-opacity:1;fill-rule:nonzero;stroke:#000000;stroke-width:0.264999;stroke-dasharray:none;stroke-opacity:1"
       id="path10059"
       d="m 14.694229,139.69687 c 1.721847,3.10106 4.85197,4.54358 7.841321,6.18277 3.564123,1.44209 7.413283,1.79172 11.22165,1.70993 2.6806,-0.0982 5.346357,-0.44057 7.98261,-0.92585 1.510909,-0.37266 2.897336,-0.8249 3.791418,-2.16153 0,0 -2.287094,-1.34267 -2.287094,-1.34267 v 0 c -0.825524,1.21817 -2.265618,1.68394 -3.648196,2.00392 -2.612969,0.47551 -5.250852,0.8378 -7.908083,0.92734 -3.795632,0.0591 -7.630181,-0.31242 -11.157492,-1.81744 0.237123,0.17355 0.968357,0.66308 0.711368,0.52063 -1.698183,-0.94121 -3.076857,-2.34779 -4.131191,-3.96143 0,0 -2.416311,-1.13567 -2.416311,-1.13567 z" />
    <ellipse
       style="fill:#000000;fill-opacity:1;fill-rule:nonzero;stroke:#000000;stroke-width:0.264999;stroke-dasharray:none;stroke-opacity:1"
       id="path10257"
       cx="26.316628"
       cy="129.86301"
       rx="3.8286302"
       ry="3.8316004" />
  </g>
</svg>
