<?xml version="1.0" encoding="UTF-8" standalone="no"?>
<!-- Created with Inkscape (http://www.inkscape.org/) -->

<svg
   width="210mm"
   height="297mm"
   viewBox="0 0 210 297"
   version="1.1"
   id="svg393"
   inkscape:version="1.2.1 (9c6d41e410, 2022-07-14)"
   sodipodi:docname="slimak.svg"
   xmlns:inkscape="http://www.inkscape.org/namespaces/inkscape"
   xmlns:sodipodi="http://sodipodi.sourceforge.net/DTD/sodipodi-0.dtd"
   xmlns="http://www.w3.org/2000/svg"
   xmlns:svg="http://www.w3.org/2000/svg">
  <sodipodi:namedview
     id="namedview395"
     pagecolor="#505050"
     bordercolor="#ffffff"
     borderopacity="1"
     inkscape:showpageshadow="0"
     inkscape:pageopacity="0"
     inkscape:pagecheckerboard="1"
     inkscape:deskcolor="#505050"
     inkscape:document-units="mm"
     showgrid="false"
     inkscape:zoom="0.35619339"
     inkscape:cx="-543.24421"
     inkscape:cy="421.11955"
     inkscape:window-width="1920"
     inkscape:window-height="1017"
     inkscape:window-x="-8"
     inkscape:window-y="-8"
     inkscape:window-maximized="1"
     inkscape:current-layer="layer1" />
  <defs
     id="defs390" />
  <g
     inkscape:label="Warstwa 1"
     inkscape:groupmode="layer"
     id="layer1">
    <rect
       style="fill:none;stroke-width:0.781889"
       id="rect451"
       width="322.85489"
       height="284.0502"
       x="-57.070934"
       y="-3.0715065" />
    <path
       sodipodi:type="spiral"
       style="fill:none;fill-rule:evenodd;stroke:#000000;stroke-width:0.264583"
       id="path453"
       sodipodi:cx="99.271233"
       sodipodi:cy="126.58395"
       sodipodi:expansion="1"
       sodipodi:revolution="3"
       sodipodi:radius="20.970354"
       sodipodi:argument="-18.464399"
       sodipodi:t0="0"
       d="m 99.271233,126.58395 c 0.974397,0.39502 -0.05175,1.50835 -0.656555,1.6195 -1.638976,0.30122 -2.691737,-1.51594 -2.582455,-2.93261 0.19548,-2.5341 2.884367,-3.95889 5.208677,-3.54541 3.41101,0.6068 5.2526,4.26739 4.50835,7.48473 -0.99196,4.28822 -5.65507,6.55699 -9.760789,5.47131 -5.16663,-1.36622 -7.866751,-7.04485 -6.434257,-12.03685 1.734941,-6.04598 8.435777,-9.17961 14.312906,-7.39721 6.926,2.1005 10.4944,9.82743 8.36016,16.58897 -2.46406,7.80647 -11.21955,11.81048 -18.865026,9.32311 -8.687281,-2.82631 -13.127474,-12.61201 -10.28606,-21.14109 3.187638,-9.56833 14.004714,-14.44512 23.417146,-11.24901 10.44958,3.54829 15.76326,15.39761 12.21196,25.69321"
       transform="matrix(2.9551696,0,0,2.9551696,-235.18438,-224.6462)" />
    <ellipse
       style="fill:#000000;stroke-width:0.781889"
       id="path999"
       cx="102.22226"
       cy="191.92194"
       rx="92.549141"
       ry="20.760502" />
    <ellipse
       style="fill:#000000;stroke-width:0.781889"
       id="path1001"
       cx="170.71252"
       cy="169.8033"
       rx="36.088348"
       ry="32.789951" />
    <circle
       style="fill:#000000;stroke-width:0.781889"
       id="path1057"
       cx="195.15941"
       cy="162.23642"
       r="1.9402338" />
    <path
       style="fill:#483737;stroke-width:0.388047"
       d="m 50.301145,173.12377 c -9.579753,-1.81512 -17.531514,-9.58342 -20.478992,-20.00646 -0.968619,-3.42529 -0.976485,-10.83514 -0.01525,-14.33529 3.65748,-13.31754 15.651861,-22.74521 29.997205,-23.57801 16.971817,-0.98526 31.758582,10.356 36.694287,28.14404 0.697326,2.51315 0.827021,4.03928 0.830146,9.76926 0.0033,6.31275 -0.07151,7.03664 -1.065207,10.28322 -0.587902,1.92084 -1.478295,4.39205 -1.978659,5.4916 l -0.909741,1.99917 -3.240286,0.21519 c -1.782164,0.1183 -6.82002,0.40843 -11.195234,0.64462 -4.375243,0.2362 -9.264629,0.51599 -10.86532,0.6218 l -2.910349,0.19235 2.250425,-1.25402 c 2.978052,-1.65948 6.787277,-5.48413 8.298366,-8.33195 4.097149,-7.72158 3.230404,-16.99723 -2.159322,-23.10827 -5.400738,-6.12349 -14.572807,-7.27556 -20.978842,-2.63507 -4.625363,3.3506 -5.911101,10.27594 -2.724505,14.67492 2.683456,3.70439 7.647229,3.89254 9.649863,0.36575 0.646108,-1.13785 0.327608,-2.84537 -0.596927,-3.20013 -0.923093,-0.35423 -1.120544,0.0268 -0.558299,1.07734 0.625115,1.16804 -0.01888,2.32533 -1.751708,3.14758 -3.304051,1.56787 -7.315483,-2.40202 -7.28398,-7.20858 0.05715,-8.72559 11.629189,-13.56159 19.901827,-8.31706 1.852959,1.17469 4.817016,4.39498 5.776639,6.27601 2.210505,4.33295 2.696363,9.9527 1.258477,14.55635 -3.149481,10.08368 -14.833781,16.62088 -25.944649,14.51564 z"
       id="path1128" />
    <path
       style="fill:#483737;stroke-width:0.388047"
       d="M 20.472283,178.15961 C 12.515604,169.33472 7.6264378,155.07358 8.4654834,143.13716 9.754691,124.79671 20.05387,109.30452 36.620283,100.78626 44.25523,96.860468 51.381746,94.979416 59.92515,94.634909 c 28.117186,-1.133777 52.47806,19.594181 57.49045,48.916951 1.36328,7.97528 0.65837,19.53579 -1.61257,26.44548 l -0.38258,1.16413 -10.18072,-0.12149 c -5.59939,-0.067 -10.23,-0.17082 -10.290246,-0.23108 -0.06023,-0.0602 0.230286,-0.87866 0.645641,-1.81871 1.952541,-4.41914 2.821285,-8.52963 3.026603,-14.32067 0.228192,-6.43589 -0.344898,-10.4466 -2.231289,-15.61545 -3.771913,-10.33526 -11.763457,-18.84961 -21.055605,-22.43305 -5.707837,-2.20118 -7.343382,-2.49211 -13.857493,-2.46502 -5.394473,0.0225 -6.372412,0.13385 -9.483227,1.08041 -6.957004,2.11692 -12.938395,5.96859 -17.14573,11.04087 -2.417038,2.9139 -5.193993,8.31888 -6.213787,12.09424 -0.9532,3.52886 -0.941534,11.25235 0.02259,14.9398 2.433135,9.30626 8.507268,16.36627 16.97645,19.73186 1.423663,0.56575 2.986527,1.02865 3.473017,1.02865 1.95272,0 -0.06857,0.68759 -3.927246,1.33595 -5.758798,0.9676 -11.870031,2.36405 -17.162096,3.92155 -2.50281,0.7366 -4.715329,1.3393 -4.916703,1.3393 -0.201384,0 -1.384115,-1.12906 -2.628295,-2.50902 z"
       id="path1130" />
    <path
       style="fill:none;stroke-width:0.781889"
       id="path1548"
       d="m 167.71746,183.59828 c 2.64747,2.9535 5.86254,5.55544 9.70511,6.76053 0.82484,0.25856 1.69166,0.35683 2.53748,0.53526 0.75172,0.0207 1.50345,0.0425 2.25515,0.0639 0,0 5.2193,-0.82346 5.2193,-0.82346 v 0 c -0.76051,0.0125 -1.52099,0.0236 -2.28151,0.0369 -0.84938,-0.14422 -1.71808,-0.20184 -2.54815,-0.43246 -3.76439,-1.04628 -6.98664,-3.54605 -9.42833,-6.52467 0,0 -5.45905,0.38401 -5.45905,0.38401 z" />
    <path
       style="fill:#ffffff;stroke-width:0.781889"
       id="path1601"
       d="m 173.34485,175.91559 c -0.21957,2.45056 -0.0854,4.78824 0.48384,7.17946 0.45404,2.04604 1.24487,3.04297 2.96753,4.16289 1.53089,0.80832 3.1674,1.39833 4.84529,1.81394 3.2488,0.61288 6.63493,0.34256 9.90201,0.3192 1.75942,-0.16342 2.99941,-1.29836 4.08331,-2.59317 1.09377,-1.4623 1.60278,-3.17019 2.02659,-4.91474 0.3201,-1.3982 0.52005,-2.81862 0.61978,-4.24847 0.0429,-0.71758 0.0446,-1.43657 0.0453,-2.15514 0,0 -5.52309,5.2e-4 -5.52309,5.2e-4 v 0 c 0.001,0.70673 0.003,1.41376 -0.0296,2.11993 -0.0786,1.39681 -0.24675,2.7882 -0.56925,4.15165 -0.41352,1.6631 -0.92381,3.29919 -2.02484,4.65407 -1.10459,1.21017 -2.3349,2.11839 -4.04206,2.15527 9.54428,0.0629 3.1261,0.1516 0.93653,-0.22519 -1.67709,-0.34197 -3.28352,-0.91935 -4.83821,-1.63435 -1.69715,-0.97554 -2.49295,-1.77656 -2.9718,-3.73917 -0.60339,-2.30342 -0.76353,-4.63145 -0.40445,-6.99662 0,0 -5.50776,-0.05 -5.50776,-0.05 z" />
    <path
       style="fill:#000000;stroke-width:0.781889"
       id="path1620"
       d="m 176.53708,108.76344 c 0.58293,1.86451 1.42654,3.63223 2.04095,5.4863 0.60304,1.81979 0.75715,2.59317 1.22635,4.47324 0.66223,3.00048 1.08726,6.05482 1.14383,9.12965 0.0235,1.3456 -0.0372,2.3668 -0.0938,3.69945 -0.0833,2.14933 -0.54883,4.24445 -1.12266,6.30711 -0.311,1.07305 -0.58206,2.15525 -0.83112,3.24418 -0.0424,0.18942 -0.0854,0.37862 -0.12802,0.56792 0,0 5.45291,0.12024 5.45291,0.12024 v 0 c 0.0417,-0.18706 0.0833,-0.37402 0.12496,-0.56106 0.26567,-1.07876 0.5467,-2.15346 0.80836,-3.23303 0.51163,-2.10941 0.87466,-4.25207 0.90575,-6.42934 0.0267,-1.38 0.0621,-2.3459 0.0148,-3.74134 -0.10667,-3.10575 -0.55115,-6.187 -1.19632,-9.2245 -0.46092,-1.95995 -0.58431,-2.61847 -1.15273,-4.52362 -0.54068,-1.81226 -1.2946,-3.56263 -1.69573,-5.41405 0,0 -5.49695,0.099 -5.49695,0.099 z" />
    <path
       style="fill:#000000;stroke-width:0.781889"
       id="path1622"
       d="m 191.86597,109.25739 c 0.70213,2.98694 1.23853,6.00733 1.7003,9.03976 0.8104,5.23159 1.15655,10.51115 1.36278,15.7957 0.19592,4.39307 0.0265,8.78909 -0.37587,13.16481 -0.14893,1.52487 -0.42678,3.02937 -0.74446,4.52641 0,0 5.37574,0.1032 5.37574,0.1032 v 0 c 0.26892,-1.52103 0.53888,-3.04501 0.61071,-4.59152 0.2382,-4.40323 0.3585,-8.81544 0.14333,-13.22305 -0.21927,-5.29693 -0.5374,-10.59192 -1.26043,-15.84786 -0.39901,-3.013 -0.88162,-6.01401 -1.30675,-9.02235 0,0 -5.50518,0.055 -5.50518,0.055 z" />
  </g>
  <g
     inkscape:groupmode="layer"
     id="layer2"
     inkscape:label="Warstwa 2">
    <ellipse
       style="display:inline;fill:#f9f9f9;stroke-width:0.781889"
       id="path1055"
       cx="194.77139"
       cy="162.04242"
       rx="6.2087483"
       ry="6.0147243" />
    <circle
       style="fill:#000000;stroke-width:0.781889"
       id="circle1603"
       cx="195.15941"
       cy="162.23642"
       r="1.9402338"
       inkscape:label="circle1603" />
  </g>
  <g
     inkscape:groupmode="layer"
     id="g1616"
     inkscape:label="Warstwa 2 kopia"
     transform="translate(-5.2196186,0.03282779)">
    <ellipse
       style="display:inline;fill:#f9f9f9;stroke-width:0.781889"
       id="ellipse1612"
       cx="184.56613"
       cy="162.1066"
       rx="6.2087483"
       ry="6.0147243" />
    <circle
       style="fill:#000000;stroke-width:0.781889"
       id="circle1614"
       cx="184.95415"
       cy="162.30058"
       r="1.9402338"
       inkscape:label="circle1603" />
  </g>
</svg>
