<svg id="visual" viewBox="0 0 960 540" width="960" height="540" xmlns="http://www.w3.org/2000/svg" xmlns:xlink="http://www.w3.org/1999/xlink" version="1.1"><rect x="0" y="0" width="960" height="540" fill="#715DF2"></rect><path d="M0 258L160 259L320 281L480 311L640 287L800 254L960 306L960 541L800 541L640 541L480 541L320 541L160 541L0 541Z" fill="#0e8700"></path><path d="M0 294L160 276L320 339L480 271L640 294L800 288L960 267L960 541L800 541L640 541L480 541L320 541L160 541L0 541Z" fill="#279301"></path><path d="M0 316L160 297L320 318L480 338L640 348L800 296L960 343L960 541L800 541L640 541L480 541L320 541L160 541L0 541Z" fill="#3a9f02"></path><path d="M0 326L160 373L320 340L480 375L640 326L800 359L960 394L960 541L800 541L640 541L480 541L320 541L160 541L0 541Z" fill="#4bac03"></path><path d="M0 394L160 350L320 349L480 402L640 357L800 413L960 369L960 541L800 541L640 541L480 541L320 541L160 541L0 541Z" fill="#5cb805"></path><path d="M0 406L160 415L320 411L480 403L640 390L800 409L960 411L960 541L800 541L640 541L480 541L320 541L160 541L0 541Z" fill="#6cc406"></path><path d="M0 428L160 444L320 444L480 427L640 448L800 429L960 439L960 541L800 541L640 541L480 541L320 541L160 541L0 541Z" fill="#7dd007"></path><path d="M0 479L160 446L320 458L480 472L640 478L800 464L960 481L960 541L800 541L640 541L480 541L320 541L160 541L0 541Z" fill="#8edd08"></path><path d="M0 482L160 502L320 500L480 482L640 464L800 490L960 488L960 541L800 541L640 541L480 541L320 541L160 541L0 541Z" fill="#9fe909"></path><path d="M0 491L160 495L320 517L480 511L640 527L800 512L960 513L960 541L800 541L640 541L480 541L320 541L160 541L0 541Z" fill="#b0f50a"></path></svg>